# File created by Blade
# Date/Time:  Tue Sep 30 19:10:51 2014
#---------------------------------------------------------
:version 1.10
:name HOM
:units
  mass 1.0
  length 1.000000
  angle deg
:documentation
     Acclaim Skeleton File
:root
   axis xyz
   order TX TY TZ RX RY RZ
   position 0.000000 0.000000 0.000000
   orientation 0 0 0
:bonedata
   begin
      id 1
      name Spine_dum
      direction 0.000000 1.000000 0.000000
      length 7.508948
      axis 0.0 0.0 0.0 xyz
   end
   begin
      id 2
      name LeftUpLeg_dum
      direction 1.000000 0.000000 0.000000
      length 3.000560
      axis 0.0 0.0 0.0 xyz
   end
   begin
      id 3
      name RightUpLeg_dum
      direction -1.000000 0.000000 0.000000
      length 3.000560
      axis 0.0 0.0 0.0 xyz
   end
   begin
      id 4
      name Spine
      direction 0.000000 1.000000 0.000000
      length 0.000000
      axis 0.0 0.0 0.0 xyz
      dof rx ry rz
   end
   begin
      id 5
      name Spine_dum1
      direction 0.000000 1.000000 0.000000
      length 13.861154
      axis 0.0 0.0 0.0 xyz
   end
   begin
      id 6
      name Spine_dum2
      direction 0.000000 1.000000 0.000000
      length 8.204781
      axis 0.0 0.0 0.0 xyz
   end
   begin
      id 7
      name Spine_dum3
      direction 0.000000 1.000000 0.000000
      length 8.204781
      axis 0.0 0.0 0.0 xyz
   end
   begin
      id 8
      name Head
      direction 0.000000 1.000000 0.000000
      length 4.527550
      axis 0.0 0.0 0.0 xyz
      dof rx ry rz
   end
   begin
      id 9
      name LeftShoulder
      direction 1.000000 0.000000 0.000000
      length 6.635956
      axis 0.0 0.0 -90.0 xyz
      dof rx ry rz
   end
   begin
      id 10
      name LeftArm
      direction 1.000000 0.000000 0.000000
      length 10.274218
      axis 0.0 0.0 -90.0 xyz
      dof rx ry rz
   end
   begin
      id 11
      name LeftForeArm
      direction 1.000000 0.000000 0.000000
      length 8.522147
      axis 0.0 0.0 -90.0 xyz
      dof ry rz rx
   end
   begin
      id 12
      name LeftHand
      direction 0.000000 0.000000 0.000000
      length 0.000000
      axis 0.0 0.0 -90.0 xyz
      dof rx ry rz
   end
   begin
      id 13
      name LeftHand_dum1
      direction 0.000000 0.000000 0.000000
      length 0.000000
      axis 0.0 0.0 -90.0 xyz
   end
   begin
      id 14
      name LeftHand_dum2
      direction 1.000000 0.000000 0.000000
      length 3.937000
      axis 0.0 0.0 -90.0 xyz
   end
   begin
      id 15
      name LeftHandThumb1
      direction 0.000000 0.000000 1.000000
      length 3.937000
      axis 0.0 0.0 -90.0 xyz
      dof rx rz ry
   end
   begin
      id 16
      name RightShoulder
      direction -1.000000 0.000000 0.000000
      length 6.635956
      axis 0.0 0.0 90.0 xyz
      dof rx ry rz
   end
   begin
      id 17
      name RightArm
      direction -1.000000 0.000000 0.000000
      length 10.274218
      axis 0.0 0.0 90.0 xyz
      dof rx ry rz
   end
   begin
      id 18
      name RightForeArm
      direction -1.000000 0.000000 0.000000
      length 8.522147
      axis 0.0 0.0 90.0 xyz
      dof ry rz rx
   end
   begin
      id 19
      name RightHand
      direction 0.000000 0.000000 0.000000
      length 0.000000
      axis 0.0 0.0 90.0 xyz
      dof rx ry rz
   end
   begin
      id 20
      name RightHand_dum1
      direction 0.000000 0.000000 0.000000
      length 0.000000
      axis 0.0 0.0 90.0 xyz
   end
   begin
      id 21
      name RightHand_dum2
      direction -1.000000 0.000000 0.000000
      length 3.937000
      axis 0.0 0.0 90.0 xyz
   end
   begin
      id 22
      name RightHandThumb1
      direction 0.000000 0.000000 1.000000
      length 3.937000
      axis 0.0 0.0 90.0 xyz
      dof rx rz ry
   end
   begin
      id 23
      name LeftUpLeg
      direction 0.000000 -1.000000 0.000000
      length 16.490845
      axis 0.0 0.0 0.0 xyz
      dof rx ry rz
   end
   begin
      id 24
      name LeftLeg
      direction 0.000000 -1.000000 0.000000
      length 14.556576
      axis 0.0 0.0 0.0 xyz
      dof rx ry rz
   end
   begin
      id 25
      name LeftFoot
      direction 0.000000 -0.258819 0.965926
      length 4.831116
      axis 15.0 0.0 0.0 xyz
      dof rx ry rz
   end
   begin
      id 26
      name LeftToeBase
      direction 0.000000 0.000000 1.000000
      length 2.952750
      axis 0.0 0.0 0.0 xyz
      dof rx ry rz
   end
   begin
      id 27
      name RightUpLeg
      direction 0.000000 -1.000000 0.000000
      length 16.490845
      axis 0.0 0.0 0.0 xyz
      dof rx ry rz
   end
   begin
      id 28
      name RightLeg
      direction 0.000000 -1.000000 0.000000
      length 14.556576
      axis 0.0 0.0 0.0 xyz
      dof rx ry rz
   end
   begin
      id 29
      name RightFoot
      direction 0.000000 -0.258819 0.965926
      length 4.831116
      axis 15.0 0.0 0.0 xyz
      dof rx ry rz
   end
   begin
      id 30
      name RightToeBase
      direction 0.000000 0.000000 1.000000
      length 2.952750
      axis 0.0 0.0 0.0 xyz
      dof rx ry rz
   end
:hierarchy
   begin
      root Spine_dum LeftUpLeg_dum RightUpLeg_dum
      Spine_dum Spine
      LeftUpLeg_dum LeftUpLeg
      RightUpLeg_dum RightUpLeg
      Spine Spine_dum1 Spine_dum2 Spine_dum3
      Spine_dum1 Head
      Spine_dum2 LeftShoulder
      Spine_dum3 RightShoulder
      LeftShoulder LeftArm
      LeftArm LeftForeArm
      LeftForeArm LeftHand
      LeftHand LeftHand_dum1 LeftHand_dum2
      LeftHand_dum1 LeftHandThumb1
      RightShoulder RightArm
      RightArm RightForeArm
      RightForeArm RightHand
      RightHand RightHand_dum1 RightHand_dum2
      RightHand_dum1 RightHandThumb1
      LeftUpLeg LeftLeg
      LeftLeg LeftFoot
      LeftFoot LeftToeBase
      RightUpLeg RightLeg
      RightLeg RightFoot
      RightFoot RightToeBase
   end

# File created by Blade
# Date/Time:  Wed Sep 24 19:25:39 2014
# Frame Rate: 120.000 fps
#------------------------------------------------------
:FULLY-SPECIFIED
:DEGREES
399
root -15.913221 32.551729 -2.449504 19.215048 -11.578386 2.996721
Spine -15.681737 17.610536 0.128850
Head 6.406887 4.430645 0.230872
LeftShoulder -15.331969 27.796971 7.163615
LeftArm 15.882025 28.236923 -73.400571
LeftForeArm 4.893309 0.000000 31.441836
LeftHand -25.637818 -0.000000 -3.683593
LeftHandThumb1 -26.253704 0.000000 33.147579
RightShoulder -17.316070 7.525960 -23.263727
RightArm -18.098530 -19.766022 86.766262
RightForeArm -13.265868 0.000000 63.988629
RightHand 0.509097 -0.000000 -35.894313
RightHandThumb1 -24.326973 -0.000000 -32.862282
LeftUpLeg -17.184524 3.697383 2.080727
LeftLeg 107.147799 -0.000000 -0.000000
LeftFoot 36.071202 13.659246 -14.739036
LeftToeBase 17.365790 -0.000000 -0.000000
RightUpLeg -20.857463 5.867132 1.988096
RightLeg 17.283294 -0.000000 -0.000000
RightFoot -16.175794 -7.112101 -11.121721
RightToeBase -2.279312 -0.000000 0.000000
400
root -15.920191 32.554116 -2.472372 19.307081 -11.970711 2.826968
Spine -15.741108 17.895236 0.069481
Head 6.423022 4.430793 0.348341
LeftShoulder -15.364013 27.905242 7.208762
LeftArm 15.667467 28.377912 -73.423961
LeftForeArm 4.897704 -0.000000 31.290578
LeftHand -25.635266 -0.000000 -3.824000
LeftHandThumb1 -26.253704 0.000000 33.147579
RightShoulder -17.290496 7.630232 -23.217330
RightArm -17.987617 -19.630935 86.817432
RightForeArm -13.297157 -0.000000 63.777004
RightHand 0.517733 -0.000000 -35.914023
RightHandThumb1 -24.326973 -0.000000 -32.862282
LeftUpLeg -17.550225 2.312217 2.346665
LeftLeg 107.250124 -0.000000 -0.000000
LeftFoot 36.113205 13.408320 -14.472939
LeftToeBase 17.568800 -0.000000 -0.000000
RightUpLeg -20.867243 6.063455 2.073340
RightLeg 17.042684 -0.000000 -0.000000
RightFoot -16.037080 -6.823486 -11.190299
RightToeBase -2.338526 -0.000000 0.000000
401
root -15.921339 32.556615 -2.495632 19.369402 -12.397555 2.690510
Spine -15.753562 18.191552 -0.013074
Head 6.435577 4.468054 0.449663
LeftShoulder -15.392282 27.958026 7.238845
LeftArm 15.396205 28.501156 -73.478000
LeftForeArm 4.941019 0.000000 31.143898
LeftHand -25.617238 -0.000000 -3.883271
LeftHandThumb1 -26.253704 0.000000 33.147579
RightShoulder -17.246477 7.740128 -23.171684
RightArm -17.856820 -19.507416 86.865613
RightForeArm -13.274132 -0.000000 63.567776
RightHand 0.502921 0.000000 -36.006045
RightHandThumb1 -24.326973 -0.000000 -32.862282
LeftUpLeg -17.891273 0.935721 2.605860
LeftLeg 107.333398 -0.000000 -0.000000
LeftFoot 36.163200 13.270617 -14.259484
LeftToeBase 17.653477 -0.000000 -0.000000
RightUpLeg -20.862396 6.411714 2.080216
RightLeg 16.814599 -0.000000 -0.000000
RightFoot -15.858765 -6.649925 -11.273781
RightToeBase -2.468642 -0.000000 0.000000
402
root -15.915583 32.558965 -2.515138 19.449903 -12.895211 2.571650
Spine -15.814942 18.544893 -0.152772
Head 6.472251 4.522598 0.596836
LeftShoulder -15.470738 28.100243 7.257467
LeftArm 15.265512 28.668351 -73.481171
LeftForeArm 4.888646 -0.000000 30.926600
LeftHand -25.599391 0.000000 -3.888066
LeftHandThumb1 -26.253704 0.000000 33.147579
RightShoulder -17.219059 7.870521 -23.126310
RightArm -17.762422 -19.456619 86.905894
RightForeArm -13.245133 -0.000000 63.368381
RightHand 0.464349 0.000000 -36.052781
RightHandThumb1 -24.326973 -0.000000 -32.862282
LeftUpLeg -18.226737 -0.487601 2.797276
LeftLeg 107.399051 -0.000000 -0.000000
LeftFoot 36.252255 13.210516 -14.116549
LeftToeBase 17.866871 -0.000000 -0.000000
RightUpLeg -20.880394 6.790060 2.032048
RightLeg 16.589601 -0.000000 -0.000000
RightFoot -15.763925 -6.482187 -11.276558
RightToeBase -2.425723 -0.000000 0.000000
403
root -15.914669 32.561471 -2.538951 19.514218 -13.372887 2.427251
Spine -15.836102 18.895553 -0.263407
Head 6.503044 4.534691 0.703683
LeftShoulder -15.510834 28.192463 7.279399
LeftArm 15.057221 28.765391 -73.538190
LeftForeArm 4.970944 -0.000000 30.766104
LeftHand -25.588189 -0.000000 -4.073795
LeftHandThumb1 -26.253704 0.000000 33.147579
RightShoulder -17.182228 7.995903 -23.068393
RightArm -17.641144 -19.379242 86.936341
RightForeArm -13.200598 0.000000 63.166479
RightHand 0.429570 -0.000000 -36.086936
RightHandThumb1 -24.326973 -0.000000 -32.862282
LeftUpLeg -18.532024 -2.010821 3.034098
LeftLeg 107.479219 -0.000000 -0.000000
LeftFoot 36.277100 12.852525 -13.897092
LeftToeBase 18.020073 -0.000000 -0.000000
RightUpLeg -20.875797 7.204636 2.019532
RightLeg 16.354557 -0.000000 -0.000000
RightFoot -15.616472 -6.423315 -11.246647
RightToeBase -2.424768 -0.000000 0.000000
404
root -15.914789 32.562343 -2.557884 19.555407 -13.879807 2.276216
Spine -15.844905 19.255146 -0.376628
Head 6.549905 4.560930 0.840683
LeftShoulder -15.569024 28.291311 7.318225
LeftArm 14.841332 28.825649 -73.637744
LeftForeArm 4.956032 0.000000 30.580026
LeftHand -25.558910 0.000000 -4.173068
LeftHandThumb1 -26.253704 0.000000 33.147579
RightShoulder -17.131965 8.103375 -23.013934
RightArm -17.499865 -19.354169 86.974149
RightForeArm -13.125240 -0.000000 62.953170
RightHand 0.388556 -0.000000 -36.096284
RightHandThumb1 -24.326973 -0.000000 -32.862282
LeftUpLeg -18.793691 -3.459541 3.344441
LeftLeg 107.532286 -0.000000 -0.000000
LeftFoot 36.286662 12.712076 -13.815268
LeftToeBase 18.345713 -0.000000 -0.000000
RightUpLeg -20.834335 7.624042 2.009123
RightLeg 16.118235 -0.000000 -0.000000
RightFoot -15.475958 -6.390207 -11.315726
RightToeBase -2.441008 -0.000000 0.000000
405
root -15.919889 32.562873 -2.579196 19.576250 -14.449717 2.086764
Spine -15.799418 19.692443 -0.469719
Head 6.584535 4.602482 0.969363
LeftShoulder -15.595062 28.345656 7.365666
LeftArm 14.625002 28.911683 -73.724413
LeftForeArm 4.874014 -0.000000 30.367013
LeftHand -25.519851 -0.000000 -4.280537
LeftHandThumb1 -26.253704 0.000000 33.147579
RightShoulder -17.091469 8.331596 -22.990403
RightArm -17.468908 -19.349397 87.048931
RightForeArm -13.079247 -0.000000 62.738839
RightHand 0.374041 0.000000 -36.096577
RightHandThumb1 -24.326973 -0.000000 -32.862282
LeftUpLeg -19.012466 -4.848849 3.712737
LeftLeg 107.594474 -0.000000 -0.000000
LeftFoot 36.258962 12.572109 -13.693502
LeftToeBase 18.433129 -0.000000 -0.000000
RightUpLeg -20.762904 8.099173 2.042279
RightLeg 15.858812 -0.000000 -0.000000
RightFoot -15.326161 -6.214414 -11.257480
RightToeBase -2.368775 -0.000000 0.000000
406
root -15.918851 32.564670 -2.596860 19.627460 -15.043505 1.956205
Spine -15.848212 20.113102 -0.666281
Head 6.670426 4.635433 1.139542
LeftShoulder -15.644956 28.404608 7.441939
LeftArm 14.392442 29.051636 -73.814192
LeftForeArm 4.679773 -0.000000 30.160763
LeftHand -25.403686 -0.000000 -4.438689
LeftHandThumb1 -26.253704 0.000000 33.147579
RightShoulder -17.063394 8.448175 -22.933914
RightArm -17.333185 -19.424987 87.102398
RightForeArm -13.026384 -0.000000 62.505806
RightHand 0.372479 0.000000 -36.070134
RightHandThumb1 -24.326973 -0.000000 -32.862282
LeftUpLeg -19.250622 -6.218780 4.023870
LeftLeg 107.623394 -0.000000 -0.000000
LeftFoot 36.257018 12.465227 -13.449361
LeftToeBase 18.194262 -0.000000 -0.000000
RightUpLeg -20.739793 8.528262 2.001805
RightLeg 15.625557 -0.000000 -0.000000
RightFoot -15.191809 -6.058054 -11.315476
RightToeBase -2.413631 -0.000000 0.000000
407
root -15.912042 32.567966 -2.614510 19.670691 -15.633235 1.858622
Spine -15.894374 20.498356 -0.873109
Head 6.769473 4.688232 1.273409
LeftShoulder -15.720398 28.489655 7.461555
LeftArm 14.140801 29.075598 -73.942082
LeftForeArm 4.747498 -0.000000 30.003565
LeftHand -25.546034 -0.000000 -4.519236
LeftHandThumb1 -26.253704 0.000000 33.147579
RightShoulder -17.025123 8.563616 -22.885557
RightArm -17.173274 -19.550164 87.140120
RightForeArm -12.984710 -0.000000 62.264852
RightHand 0.348761 -0.000000 -35.989517
RightHandThumb1 -24.326973 -0.000000 -32.862282
LeftUpLeg -19.497668 -7.600641 4.304814
LeftLeg 107.663691 -0.000000 -0.000000
LeftFoot 36.227916 12.379876 -13.120801
LeftToeBase 18.145929 -0.000000 -0.000000
RightUpLeg -20.724320 8.945753 1.919623
RightLeg 15.406850 -0.000000 -0.000000
RightFoot -15.048974 -5.932818 -11.412778
RightToeBase -2.463657 -0.000000 0.000000
408
root -15.909467 32.569780 -2.626580 19.704229 -16.196230 1.733907
Spine -15.950550 20.862414 -1.039189
Head 6.907385 4.776130 1.429467
LeftShoulder -15.771945 28.561962 7.491072
LeftArm 13.858228 29.145400 -74.076307
LeftForeArm 4.704581 -0.000000 29.847251
LeftHand -25.590553 -0.000000 -4.677004
LeftHandThumb1 -26.253704 0.000000 33.147579
RightShoulder -17.016509 8.684872 -22.852982
RightArm -17.035325 -19.762936 87.180790
RightForeArm -12.946011 -0.000000 62.025022
RightHand 0.363663 -0.000000 -35.868668
RightHandThumb1 -24.326973 -0.000000 -32.862282
LeftUpLeg -19.687543 -9.006637 4.674203
LeftLeg 107.660461 -0.000000 -0.000000
LeftFoot 36.262975 12.373677 -13.008356
LeftToeBase 18.135280 -0.000000 -0.000000
RightUpLeg -20.652665 9.295551 1.895251
RightLeg 15.136989 -0.000000 -0.000000
RightFoot -14.920295 -5.730877 -11.467498
RightToeBase -2.462150 -0.000000 0.000000
409
root -15.899309 32.571906 -2.632744 19.754111 -16.893167 1.613167
Spine -16.050072 21.300707 -1.245691
Head 7.072620 4.912520 1.583918
LeftShoulder -15.863740 28.613090 7.509743
LeftArm 13.524898 29.419713 -74.214389
LeftForeArm 5.122667 -0.000000 29.668623
LeftHand -25.714626 -0.000000 -4.299842
LeftHandThumb1 -26.253704 0.000000 33.147579
RightShoulder -16.917676 8.884395 -22.803717
RightArm -17.026381 -19.971013 87.205143
RightForeArm -12.913958 -0.000000 61.853975
RightHand 0.399140 -0.000000 -35.658980
RightHandThumb1 -24.326973 -0.000000 -32.862282
LeftUpLeg -19.856611 -10.230118 4.975286
LeftLeg 107.650433 -0.000000 -0.000000
LeftFoot 36.162528 12.366847 -12.835528
LeftToeBase 18.437362 -0.000000 -0.000000
RightUpLeg -20.618483 9.725052 1.805837
RightLeg 14.908895 -0.000000 -0.000000
RightFoot -14.807631 -5.481846 -11.500058
RightToeBase -2.561958 -0.000000 0.000000
410
root -15.895802 32.573936 -2.645390 19.805076 -17.536871 1.472103
Spine -16.114828 21.717461 -1.412907
Head 7.171594 5.029995 1.676438
LeftShoulder -15.949363 28.667985 7.498189
LeftArm 13.226629 29.485556 -74.354753
LeftForeArm 5.104594 -0.000000 29.535553
LeftHand -25.747836 -0.000000 -4.330540
LeftHandThumb1 -26.253704 0.000000 33.147579
RightShoulder -16.959320 9.014041 -22.788886
RightArm -16.848288 -20.336851 87.234970
RightForeArm -12.833791 -0.000000 61.599123
RightHand 0.434369 -0.000000 -35.534924
RightHandThumb1 -24.326973 -0.000000 -32.862282
LeftUpLeg -20.043541 -11.382330 5.370663
LeftLeg 107.641893 -0.000000 -0.000000
LeftFoot 36.355213 11.965807 -12.371518
LeftToeBase 17.376481 -0.000000 -0.000000
RightUpLeg -20.568521 10.193949 1.749077
RightLeg 14.644397 -0.000000 -0.000000
RightFoot -14.662093 -5.309790 -11.545751
RightToeBase -2.560298 -0.000000 0.000000
411
root -15.891823 32.576092 -2.654487 19.847314 -18.163101 1.353729
Spine -16.198916 22.074213 -1.598298
Head 7.310328 5.176102 1.808912
LeftShoulder -16.078283 28.775178 7.463793
LeftArm 12.995586 29.408617 -74.474782
LeftForeArm 4.802277 -0.000000 29.325443
LeftHand -25.576290 0.000000 -4.704042
LeftHandThumb1 -26.253704 0.000000 33.147579
RightShoulder -16.929607 9.099389 -22.725062
RightArm -16.643858 -20.684772 87.231324
RightForeArm -12.757860 -0.000000 61.365831
RightHand 0.502746 -0.000000 -35.396103
RightHandThumb1 -24.326973 -0.000000 -32.862282
LeftUpLeg -20.222586 -12.622319 5.726411
LeftLeg 107.641585 -0.000000 -0.000000
LeftFoot 36.340857 12.005338 -12.220337
LeftToeBase 17.472901 -0.000000 -0.000000
RightUpLeg -20.495429 10.615182 1.680393
RightLeg 14.356705 -0.000000 -0.000000
RightFoot -14.532393 -5.115718 -11.557921
RightToeBase -2.598250 -0.000000 0.000000
